<svg width="40" height="40" viewBox="0 0 40 40" fill="none" xmlns="http://www.w3.org/2000/svg">
<path fill-rule="evenodd" clip-rule="evenodd" d="M20 40C31.0457 40 40 31.0457 40 20C40 8.9543 31.0457 0 20 0C8.9543 0 0 8.9543 0 20C0 31.0457 8.9543 40 20 40ZM20 35.7575C28.7027 35.7575 35.7576 28.7026 35.7576 19.9999C35.7576 11.2973 28.7027 4.24236 20 4.24236C11.2973 4.24236 4.2424 11.2973 4.2424 19.9999C4.2424 28.7026 11.2973 35.7575 20 35.7575Z" fill="#1D70F3"/>
<ellipse cx="30" cy="26" rx="6" ry="6" fill="#1D70F3"/>
<circle cx="10" cy="25.3333" r="6" fill="#1D70F3"/>
<ellipse cx="20" cy="8.66663" rx="6" ry="6" fill="#1D70F3"/>
<rect x="15.3335" y="27.3333" width="3.33333" height="9.33333" transform="rotate(-90 15.3335 27.3333)" fill="#1D70F3"/>
<rect x="13.5532" y="21.7495" width="3.33333" height="9.33333" transform="rotate(-150 13.5532 21.7495)" fill="#1D70F3"/>
<rect x="29.5532" y="20.0829" width="3.33333" height="9.33333" transform="rotate(150 29.5532 20.0829)" fill="#1D70F3"/>
</svg>
